<?xml version="1.0" encoding="iso-8859-1"?>
<!-- Generator: Adobe Illustrator 19.0.0, SVG Export Plug-In . SVG Version: 6.00 Build 0)  -->
<svg version="1.1" id="Capa_1" xmlns="http://www.w3.org/2000/svg" xmlns:xlink="http://www.w3.org/1999/xlink" x="0px" y="0px"
	 viewBox="0 0 512 512" style="enable-background:new 0 0 512 512;" xml:space="preserve">
<g>
	<g>
		<path d="M488.727,88.436l-31.418-31.418c-6.982-6.982-15.127-10.473-24.436-10.473H290.909V34.909C290.909,15.127,275.782,0,256,0
			c-19.782,0-34.909,15.127-34.909,34.909v11.636h-11.636c-19.782,0-34.909,15.127-34.909,34.909v69.818
			c0,19.782,15.127,34.909,34.909,34.909h11.636v23.273H79.127c-9.309,0-18.618,3.491-24.436,10.473l-31.418,31.418
			c-6.982,6.982-11.636,17.455-11.636,27.927c0,10.473,4.655,20.945,11.636,27.927l31.418,31.418
			c6.982,6.982,15.127,10.473,24.436,10.473h107.055c6.982,0,11.636-4.655,11.636-11.636c0-6.982-4.655-11.636-11.636-11.636H79.127
			c-3.491,0-5.818-1.164-8.145-3.491l-31.418-31.418c-3.491-3.491-4.655-6.982-4.655-11.636c0-4.655,1.164-8.145,4.655-11.636
			l31.418-31.418c2.327-2.327,5.818-3.491,8.145-3.491h223.418c6.982,0,11.636,4.655,11.636,11.636v69.818
			c0,6.982-4.655,11.636-11.636,11.636h-69.818c-6.982,0-11.636,4.655-11.636,11.636v96.582c-9.309,3.491-27.927,11.636-64,27.927
			c-9.309,4.654-17.455,16.291-17.455,26.764H128c-6.982,0-11.636,4.655-11.636,11.636S121.018,512,128,512h34.909h186.182H384
			c6.982,0,11.636-4.655,11.636-11.636s-4.655-11.636-11.636-11.636h-11.636c0-10.473-8.145-22.109-17.455-26.764
			c-36.073-17.455-54.691-24.436-64-27.927v-84.945h11.636c19.782,0,34.909-15.127,34.909-34.909v-69.818
			c0-19.782-15.127-34.909-34.909-34.909h-11.636v-34.909c0-6.982-4.655-11.636-11.636-11.636h-69.818
			c-6.982,0-11.636-4.655-11.636-11.636V81.455c0-6.982,4.655-11.636,11.636-11.636h223.418c3.491,0,5.818,1.164,8.145,3.491
			l31.418,31.418c3.491,3.491,4.655,6.982,4.655,11.636s-1.164,8.145-4.655,11.636l-31.418,31.418
			c-2.327,2.327-4.655,3.491-8.146,3.491H325.818c-6.982,0-11.636,4.655-11.636,11.636s4.655,11.636,11.636,11.636h107.055
			c9.309,0,18.618-3.491,24.436-10.473l31.418-31.418c6.982-6.982,11.636-17.455,11.636-27.927S495.709,95.418,488.727,88.436z
			 M346.764,481.745c1.164,1.164,3.491,3.491,3.491,5.818H162.909c0-1.164,2.327-4.655,3.491-5.818
			c27.927-12.8,60.509-27.927,67.491-29.091c1.164,0,1.164,0,2.327,0s1.164,0,2.327,0s1.164-1.164,2.327-1.164l1.164-1.164
			c1.164-1.164,1.164-1.164,1.164-2.327l1.164-1.164c0-1.164,1.164-2.327,1.164-4.655v-93.091H268.8l-1.164,93.091
			c0,1.164,0,3.491,1.164,4.655c0,0,0,1.164,1.164,1.164c0,1.164,1.164,2.327,1.164,2.327l1.164,1.164
			c1.164,0,1.164,1.164,2.327,1.164c0,0,1.164,0,2.327,0s1.164,0,2.327,0C286.255,453.818,317.673,468.945,346.764,481.745z
			 M244.364,186.182h23.273v23.273h-23.273V186.182z M267.636,46.545h-23.273V34.909c0-6.982,4.655-11.636,11.636-11.636
			c6.982,0,11.636,4.655,11.636,11.636V46.545z"/>
	</g>
</g>
<g>
	<g>
		<circle cx="256" cy="279.273" r="11.636"/>
	</g>
</g>
<g>
	<g>
		<circle cx="256" cy="116.364" r="11.636"/>
	</g>
</g>
<g>
</g>
<g>
</g>
<g>
</g>
<g>
</g>
<g>
</g>
<g>
</g>
<g>
</g>
<g>
</g>
<g>
</g>
<g>
</g>
<g>
</g>
<g>
</g>
<g>
</g>
<g>
</g>
<g>
</g>
</svg>
