<?xml version="1.0" encoding="iso-8859-1"?>
<!-- Generator: Adobe Illustrator 19.0.0, SVG Export Plug-In . SVG Version: 6.00 Build 0)  -->
<svg version="1.1" id="Capa_1" xmlns="http://www.w3.org/2000/svg" xmlns:xlink="http://www.w3.org/1999/xlink" x="0px" y="0px"
	 viewBox="0 0 512 512" style="enable-background:new 0 0 512 512;" xml:space="preserve">
<g>
	<g>
		<circle cx="162.909" cy="349.091" r="11.636"/>
	</g>
</g>
<g>
	<g>
		<path d="M500.364,407.273V244.364c0-6.982-4.655-11.636-11.636-11.636s-11.636,4.655-11.636,11.636v162.909H256
			c-6.982,0-11.636,4.655-11.636,11.636s4.655,11.636,11.636,11.636h232.727v23.273H209.455V256c0-6.982-4.655-11.636-11.636-11.636
			s-11.636,4.655-11.636,11.636v197.818H93.091V256c0-6.982-4.655-11.636-11.636-11.636S69.818,249.018,69.818,256v197.818H23.273
			v-23.273h11.636c6.982,0,11.636-4.655,11.636-11.636s-4.655-11.636-11.636-11.636V244.364c0-6.982-4.655-11.636-11.636-11.636
			s-11.636,4.655-11.636,11.636v162.909C4.655,407.273,0,411.927,0,418.909v46.545c0,6.982,4.655,11.636,11.636,11.636h488.727
			c6.982,0,11.636-4.655,11.636-11.636v-46.545C512,411.927,507.345,407.273,500.364,407.273z"/>
	</g>
</g>
<g>
	<g>
		<path d="M477.091,34.909H34.909C15.127,34.909,0,50.036,0,69.818v23.273c0,6.982,4.655,11.636,11.636,11.636
			s11.636-4.655,11.636-11.636V69.818c0-6.982,4.655-11.636,11.636-11.636h442.182c6.982,0,11.636,4.655,11.636,11.636v23.273
			c0,6.982,4.655,11.636,11.636,11.636S512,100.073,512,93.091V69.818C512,50.036,496.873,34.909,477.091,34.909z"/>
	</g>
</g>
<g>
	<g>
		<path d="M442.182,360.727V256c0-6.982-4.655-11.636-11.636-11.636s-11.636,4.655-11.636,11.636v104.727H279.273V256
			c0-6.982-4.655-11.636-11.636-11.636S256,249.018,256,256v104.727c-6.982,0-11.636,4.655-11.636,11.636S249.018,384,256,384
			h11.636h162.909h11.636c6.982,0,11.636-4.655,11.636-11.636S449.164,360.727,442.182,360.727z"/>
	</g>
</g>
<g>
	<g>
		<path d="M500.364,195.491l-18.618-75.636c-4.655-16.291-18.618-26.764-34.909-26.764H65.164
			c-16.291,0-30.255,10.473-33.745,26.764l-19.782,75.636c-1.164,4.655,1.164,10.473,5.818,12.8
			c27.927,16.291,69.818,17.455,98.909,3.491c13.964,6.982,30.255,10.473,46.545,10.473c16.291,0,32.582-3.491,46.545-10.473
			c13.964,6.982,30.255,10.473,46.545,10.473s32.582-3.491,46.545-10.473c13.964,6.982,30.255,10.473,46.545,10.473
			c16.291,0,32.582-3.491,46.545-10.473c13.964,6.982,30.255,10.473,46.545,10.473c18.618,0,37.236-4.655,52.364-12.8
			C499.2,204.8,501.527,200.145,500.364,195.491z M105.891,189.673C86.109,200.145,57.018,200.145,37.236,192l16.291-66.327
			c1.164-4.655,5.818-9.309,11.636-9.309H115.2L105.891,189.673z M197.818,190.836c-19.782,9.309-48.873,9.309-68.655,0
			l9.309-74.473h59.345V190.836z M290.909,190.836c-19.782,9.309-50.036,9.309-69.818,0v-74.473h69.818V190.836z M314.182,190.836
			v-74.473h59.345l9.309,74.473C363.055,200.145,333.964,200.145,314.182,190.836z M406.109,189.673l-9.309-73.309h50.036
			c5.818,0,10.473,3.491,11.636,9.309L474.764,192C454.982,200.145,425.891,200.145,406.109,189.673z"/>
	</g>
</g>
<g>
</g>
<g>
</g>
<g>
</g>
<g>
</g>
<g>
</g>
<g>
</g>
<g>
</g>
<g>
</g>
<g>
</g>
<g>
</g>
<g>
</g>
<g>
</g>
<g>
</g>
<g>
</g>
<g>
</g>
</svg>
